<!--?xml version="1.0"?-->
<svg xmlns="http://www.w3.org/2000/svg" version="1.2" baseProfile="tiny" width="100%" height="100%" viewBox="0 0 800 1896" stroke-linecap="round" stroke-linejoin="round">

<path d="M 360.38 879.92 362.21 879.81 365.75 879.57 379.31 878.94 380.15 878.82 385.67 877.8 387.45 877.35 389.21 876.86 391.23 876.25 391.79 876.08 392.6 875.84 392.88 875.75 393.76 875.49 394.62 875.26 395.63 874.99 397.69 874.44 399.18 874.02 400.47 873.69 401.17 873.52 402.92 873.07 403.52 872.86 404.77 872.11 406.72 870.94 406.85 870.86 406.86 870.85 408.04 869.9 413.11 865.78 413.7 865.29 413.7 865.3 414.15 864.87 414.63 864.47 415.13 864.11 415.66 863.77 416.2 863.47 416.8 863.18 417.17 863.04 417.42 862.94 418.05 862.73 418.7 862.57 418.92 862.53 419.35 862.45 419.9 862.39 420.45 862.38 421 862.42 421.36 862.47 421.71 862.54 421.86 862.57 423.16 862.97 423.29 863.03 423.72 863.23 424.62 863.63 425.07 863.84 425.25 863.92 425.36 863.99 427.58 865 430.31 866.93 431.38 867.96 431.46 868.01 431.47 868.13 431.47 868.95 431.19 869.5 430.81 871.44 430.89 873.27 431.23 873.96 431.48 874.37 431.53 874.54 431.62 874.71 431.76 875.09 432.02 875.77 432.49 876.87 432.8 877.61 432.95 877.97 433.34 878.35 433.58 878.58 434.23 879.47 434.28 879.64 434.49 880.3 434.52 880.41 434.53 880.49 434.58 882.03 434.61 883.13 434.59 883.4 434.52 884.17 434.69 884.69 434.92 885.31 435.37 886.1 435.78 886.96 435.82 887.04 435.94 887.28 436.4 888.13 436.81 888.62 437.22 889.75 437.44 891.48 437.42 891.75 437.34 893.33 437.27 894.9 437.41 896.75 437.46 898.26 437.46 898.41 437.46 898.53 437.62 900.29 437.62 901.19 437.37 902.12 437.39 902.63 437.41 903.1 437.92 904.43 438.68 905.84 439.5 907.38 440.06 908.09 440.62 908.8 440.63 908.81 442.02 910.04 442.95 911.87 443.12 913.02 443.13 913.05 443.37 913.9 443.9 914.59 444.39 915.46 445.06 916.62 445.22 916.82 445.98 917.79 446.53 918.54 446.64 918.69 447.08 919.92 447.18 920.37 447.23 920.61 447.47 921.62 447.67 922.34 447.93 923.4 448.35 923.9 448.56 924.15 449.45 924.65 449.7 924.75 450.36 925.03 450.64 925.2 451.18 925.54 451.9 926.41 452.44 927.38 452.66 928.72 452.89 929.89 453.36 930.94 453.88 931.73 454.94 932.2 455.96 932.71 456.67 932.59 456.75 932.56 457.63 932.23 458.63 931.53 459.38 931.29 460.58 931.42 461.61 931.72 462.73 932.47 463.86 933.26 464.58 933.74 465.59 934.26 466.72 934.79 467.55 935.29 467.62 935.34 467.71 935.41 467.76 935.46 468.83 936.45 470.13 939.48 471.54 941.85 471.78 942.26 472.98 944.26 473.27 945.53 473.45 945.76 474.75 947.38 475.65 947.96 476.72 948.64 479.02 950.93 481.65 952.7 481.77 952.8 482.37 953.27 482.85 953.65 483.5 954.17 485.21 955.27 487.08 957.24 487.64 958.09 488.56 959.49 489.89 961.65 490.59 963.23 490.84 963.83 491.39 964.79 491.3 965.07 491.06 965.83 490.97 966.13 490.22 966.78 489.14 967.47 488.93 967.67 488.65 967.88 488.01 969.13 487.53 970.2 487.15 971.76 487.66 973.74 488.53 976.54 488.61 976.79 488.04 977.99 487.49 978.93 487.7 980.02 488.73 982.22 489.43 984.43 489.88 985.7 489.99 986.01 489.77 987.51 490.37 989.45 491.28 989.89 493.54 990.94 494.12 991.21 495.51 991.95 496.35 992.64 497.49 994.1 498.21 995.23 498.47 995.94 498.6 996.3 498.84 996.5 499.68 997.21 500.01 997.55 500.84 998.41 501.47 998.85 502.43 999.53 503.17 1000.26 503.24 1000.43 503.85 1001.82 504.29 1003.36 505.32 1004.92 506.14 1005.82 506.7 1006.38 506.92 1006.6 506.77 1007.28 506.7 1007.56 506.14 1009.57 505.93 1010.8 505.88 1011.07 505.66 1011.38 505.06 1012.2 504.71 1013.23 504.63 1014.77 504.63 1016.62 504.78 1017.68 504.84 1018.05 505.28 1019.38 505.34 1019.62 505.7 1020.93 505.83 1022.22 505.76 1022.55 505.66 1023.08 505.64 1023.1 504.67 1023.95 503.76 1025.04 503.41 1025.45 502.99 1025.93 502.73 1027.18 502.31 1027.86 502.22 1028.92 502.39 1030.59 502.55 1031.38 502.73 1032.26 502.8 1033.15 502.86 1033.9 502.9 1034.85 503.21 1036.26 503.47 1037.51 503.99 1038.16 504.67 1038.81 505.57 1039.15 506.31 1039.36 506.48 1040.18 506.61 1042.07 506.65 1043.15 506.92 1043.69 507.38 1044.59 507.95 1045.27 508.46 1045.44 508.81 1045.57 509.53 1045.85 509.7 1045.92 510.32 1046.19 510.88 1046.28 511.38 1046.36 511.86 1046.91 511.84 1047.47 511.24 1048.24 511.07 1048.46 510.47 1049.35 510.29 1050.08 510.22 1050.34 509.97 1050.91 509.85 1051.02 509.26 1051.56 508.77 1052.56 508.57 1053.67 508.02 1054.43 507.95 1054.52 507.59 1055.07 506.97 1056.07 506.17 1056.98 505.76 1057.67 506.38 1058.59 507.33 1059.52 507.67 1059.96 507.91 1060.28 508.33 1061.47 508.12 1062.59 508.15 1063.51 508.51 1063.81 509.01 1064.21 509.84 1065.01 510.12 1065.16 511.02 1065.66 511.91 1066.82 512.18 1067.79 513.04 1069.14 513.66 1070.41 514.11 1071.54 514.41 1072.65 514.42 1072.68 514.61 1074.06 514.74 1075.88 514.83 1077.34 514.93 1079.17 514.74 1080.05 513.9 1081.87 513.73 1082.98 513.79 1084.7 513.95 1085.21 514.29 1086.23 514.38 1086.5 514.45 1087.36 514.45 1087.63 514.45 1088.53 514.42 1088.66 514.14 1089.83 514.03 1090.28 513.83 1091.05 513.76 1092.28 513.38 1093.38 513.32 1093.68 513.04 1095.08 512.39 1096.38 512.28 1096.58 511.7 1097.65 511.69 1097.67 511.19 1098.63 510.62 1099.74 510.62 1099.74 510.46 1101.38 510.36 1102.33 510.31 1102.59 510.3 1102.7 510.25 1102.97 510.21 1103.18 509.51 1106.29 509.18 1108 510.79 1108.76 511.95 1109.5 514.49 1110.57 516.9 1108.14 519.05 1109.75 520.9 1108.74 522.46 1107.53 525.37 1109.86 525.94 1110.84 524.82 1112.7 525.63 1113.42 526.36 1114.07 527.44 1115.02 528.01 1115.57 528.99 1116.51 529.43 1117.15 529.82 1117.43 530.14 1117.66 531.49 1118.64 535.01 1119.5 538.03 1120.25 541.44 1121.15 544.14 1123.2 546.79 1125.39 547.42 1125.95 548.46 1126.87 548.53 1127.13 548.68 1127.61 548.79 1127.96 548.89 1128.29 548.92 1128.38 549.14 1129.05 549.41 1129.88 549.54 1130.31 549.68 1130.52 550.33 1131.5 550.43 1131.61 551.54 1132.8 553.18 1134.57 553.19 1134.58 553.72 1135.2 554.27 1135.91 555.1 1136.98 556.45 1138.76 557.36 1139.96 557.45 1139.96 557.95 1140.59 558.69 1141.55 559.47 1142.56 559.7 1142.84 559.71 1142.85 561.01 1144.47 563.34 1141.98 567.37 1147.02 567.5 1147.18 561.04 1154.28 555.34 1160.91 547.02 1170.49 548.67 1172.23 545.84 1176.1 544.58 1176.32 544.68 1178.54 544.64 1178.68 544.71 1179.12 544.83 1179.95 545.28 1182.59 545.5 1183.93 545.56 1184.25 546.18 1187.99 545.84 1189.36 545.63 1189.73 543.68 1193.32 543.33 1193.96 542.94 1194.53 542.84 1194.67 542.33 1195.42 542.22 1195.58 539.25 1197.83 538.91 1198.35 538.58 1198.85 537.31 1200.8 535.48 1203.59 534.87 1204.47 534.66 1204.76 531.85 1208.81 531.27 1209.64 530.41 1211.16 530.23 1211.67 530.1 1212 529.9 1212.53 529.64 1213.04 529.05 1214.19 528.47 1215.31 528.09 1216.06 528.07 1216.09 527.96 1216.31 527.06 1217.86 526.31 1219.15 526.1 1219.52 524.76 1222.02 524.73 1222.05 523.54 1223.51 522.04 1225.92 521.88 1226.21 522.08 1226.57 522.18 1226.75 522.31 1226.99 523.14 1228.49 523.08 1228.86 522.78 1229.61 522.52 1230.94 522.46 1231.24 521.9 1232.8 521.04 1234.51 520.25 1235.81 519.95 1236.34 518.98 1238.06 517.79 1242.22 517.24 1243.49 516.43 1244.5 516.41 1244.52 516.25 1244.72 514.73 1246.62 513.98 1247.71 513.88 1248.05 513.63 1248.8 513.18 1250.44 512.99 1251.09 512.8 1251.74 512.3 1252.26 511.36 1252.83 510.21 1253.27 509.59 1253.79 508.64 1254.85 508.34 1255.18 507.93 1255.6 507.69 1255.85 505.71 1257.48 504.5 1258.74 504.26 1259.14 503.99 1259.6 503.83 1260.16 503.89 1261.69 503.93 1262.66 503.9 1263.61 503.87 1264.47 503.86 1264.99 503.84 1265.53 503.83 1265.93 503.84 1266.27 503.89 1267.25 503.9 1267.5 503.93 1267.72 503.95 1267.9 504.11 1269.02 504.12 1269.11 504.14 1269.43 504.2 1270.51 504.21 1270.66 504.26 1271.38 504.35 1272.14 504.39 1272.44 504.48 1272.6 504.72 1273.07 505.34 1273.86 505.73 1274.36 505.73 1274.37 505.74 1274.38 506.39 1275.47 506.52 1275.68 506.55 1275.81 506.68 1276.3 506.77 1276.63 506.95 1277.49 507.06 1278.02 507.08 1278.1 507.12 1278.3 507.03 1279.4 506.97 1279.53 506.94 1279.6 506.9 1279.69 506.82 1279.88 506.84 1280.09 506.98 1281.2 506.99 1281.35 507.15 1282.6 508.46 1282.08 508.58 1282.04 511.27 1280.98 511.35 1280.96 511.57 1281.5 511.87 1282.22 512.22 1283.2 512.3 1283.43 512.75 1284.91 514.33 1285.71 518.78 1288.2 519.29 1288.42 519.51 1288.52 521.91 1289.36 522.42 1289.56 527.29 1291.5 528.71 1292.07 528.92 1292.15 529.84 1292.51 531.45 1293.16 533.47 1293.96 542.26 1297.44 542.96 1297.72 543.51 1297.95 544.01 1298.18 544.44 1297.81 545.38 1297 545.49 1296.91 545.51 1296.89 546.92 1295.67 550.77 1291.52 551.34 1290.91 557.23 1284.55 557.59 1284.17 563.52 1277.76 564.74 1278.87 565.99 1280.01 567.54 1281.41 569.15 1282.87 569.27 1282.98 569.53 1283.24 569.57 1283.28 570.33 1284.34 572.62 1288.77 572.91 1289.34 573.5 1290.48 574.09 1291.61 574.11 1291.66 574.82 1293.04 576.98 1297.25 577.19 1297.64 578.55 1300.31 578.72 1300.64 579.87 1302.87 580.34 1303.79 580.4 1303.91 581.46 1305.91 582.78 1308.4 584.88 1312.39 586.14 1314.77 586.62 1314.92 586.98 1315.03 588.04 1315.36 588.08 1315.37 594.81 1317.88 594.83 1317.89 596.85 1318.64 597.92 1319.02 598.96 1319.38 600.96 1320.2 601.24 1320.33 602.78 1321.06 603.58 1321.45 603.74 1321.55 603.86 1321.62 603.91 1321.52 604.31 1320.95 605.84 1318.8 605.93 1318.68 608.11 1311.75 608.98 1308.95 611.32 1301.84 611.33 1301.83 611.69 1301.9 611.78 1301.92 612.62 1302.11 612.9 1302.17 613.37 1302.27 613.58 1302.32 615.4 1306.41 615.43 1306.48 615.46 1306.54 616.18 1308.18 616.6 1309.12 616.96 1309.92 618.89 1314.29 619.26 1315.13 619.35 1315.32 619.49 1315.55 619.88 1316.15 620.15 1316.58 621.33 1318.43 622.77 1321.26 623.1 1321.91 624.11 1324.02 628.57 1333.33 630.35 1337.05 631.66 1339.77 633.84 1344.34 634.41 1345.54 635.08 1346.92 635.5 1347.8 636.69 1350.29 636.86 1350.63 636.9 1350.73 637.4 1351.77 637.47 1351.74 639.51 1350.98 639.96 1350.81 640.04 1350.78 640.24 1350.81 642.96 1351.22 646.48 1351.49 646.84 1351.52 651.19 1352.48 649.46 1356.27 650.01 1356.93 650.27 1357.24 651.43 1358.61 651.76 1359 653.17 1360.45 653.4 1360.66 654.08 1361.28 654.75 1362.01 654.85 1362.12 658.89 1360.19 660.47 1359.44 662.39 1358.53 665.19 1357.16 667.12 1355.75 668.68 1354.62 668.74 1354.57 668.87 1354.75 669 1354.92 670.11 1356.44 670.48 1356.95 670.61 1357.13 671.31 1358.09 671.68 1357.83 672.02 1357.58 672.1 1357.53 672.82 1359.1 673.32 1360.2 673.58 1360.77 674.86 1363.94 674.87 1363.97 676.33 1363.36 677.27 1362.97 677.66 1362.8 679.86 1361.88 679.94 1361.85 680 1361.8 680.04 1361.9 680.14 1362.16 680.4 1362.82 681.22 1364.88 681.18 1364.9 680.04 1365.38 678.47 1366.04 677.23 1366.56 677.27 1366.64 677.28 1366.68 677.67 1367.58 678.33 1369.14 678.4 1369.3 678.51 1369.58 679.65 1372.27 680.09 1373.31 681.52 1376.68 681.54 1376.72 679.9 1377.55 678.53 1378.25 678.51 1378.25 678.53 1378.28 678.54 1378.32 679.43 1380.31 680.23 1382.12 680.22 1382.22 680.2 1382.39 680.18 1382.59 680.17 1382.64 680.17 1382.65 680.17 1382.68 679.71 1382.92 680.95 1385.32 682.4 1388.13 682.85 1389 683.8 1390.83 684.27 1391.75 684.29 1391.79 684.33 1391.76 684.34 1391.77 684.53 1391.68 686.18 1390.92 687.26 1390.42 688.72 1389.74 689.36 1389.45 689.52 1389.37 689.6 1389.33 690.57 1388.89 691.34 1388.84 697.63 1388.43 697.84 1389.32 698.36 1392.09 698.28 1393.72 701.31 1399.77 704.12 1405.15 707.56 1404.61 708.79 1404.55 709.15 1404.54 709.37 1404.53 710.74 1404.52 712.63 1404.58 715.2 1404.66 715.24 1405.38 715.26 1405.78 715.32 1406.99 716.83 1409.02 717.17 1409.53 718.89 1412.14 721.02 1415.49 722.44 1417.48 724.13 1420.07 727.27 1425.15 727.42 1425.5 727.58 1425.87 727.73 1426.21 727.76 1426.39 728.04 1427.77 728.14 1428.26 728.18 1428.45 728.23 1428.63 728.46 1429.34 728.59 1429.71 728.78 1430.23 729.41 1431.9 729.55 1432.5 729.65 1432.93 729.56 1433.56 729.47 1434.19 729.09 1435.04 728.85 1435.3 728.79 1435.41 728.71 1435.44 728.65 1435.51 728.56 1435.61 727.37 1436.11 727.17 1436.24 726.28 1436.83 725.78 1437.25 725.73 1437.3 725.56 1437.44 725.46 1437.53 725.45 1437.54 725.36 1437.62 722.65 1441.02 722.56 1441.16 721.49 1442.77 720.12 1444.81 719.9 1445.27 719.8 1445.45 719.12 1446.72 718.26 1448.34 716.46 1451.37 713.4 1456.06 713.13 1456.32 711.14 1459.7 710.85 1460.15 710.76 1460.9 710.47 1461.38 710 1461.61 709.4 1462.64 708.99 1463.35 708.61 1464.25 708.38 1464.77 708.07 1465.51 707.89 1466.56 707.68 1467.79 707.51 1468.75 707.49 1468.89 707.23 1469.32 706.77 1470.11 706.33 1470.84 705.65 1471.99 705.36 1472.58 703.34 1476.71 702.9 1477.62 701.27 1480.66 699.7 1483.61 700.58 1483.9 704.59 1485.87 704.16 1487.27 702.57 1490.54 699.35 1496.95 694.41 1506.82 694.23 1507.28 690.63 1514.23 689.93 1515.38 686.61 1523.02 684.43 1528.27 680.82 1536.89 677.8 1536.64 677.14 1538 664.61 1563.35 673.56 1567.22 673.1 1575.56 673.05 1576.59 672.69 1584.14 672.74 1584.45 684.75 1582.1 684.67 1582.72 684.38 1584.07 684.41 1585.02 683.72 1591.19 683.91 1592.63 684.98 1598 686 1597.81 686.84 1597.6 689.52 1596.98 690.57 1596.82 696.73 1595.91 703.97 1594.3 704.35 1594.22 704.36 1594.23 706.22 1593.85 706.49 1593.79 712.22 1592.62 718.56 1591.44 720.07 1591.07 721.55 1590.69 723.91 1590.1 728.24 1589.73 734.68 1588.5 741.76 1586.94 754.1 1584.12 760.64 1582.72 760.67 1582.9 761.08 1586.14 761.14 1586.64 761.75 1591.28 761.86 1592.26 762.15 1594.54 762.33 1596.01 762.84 1599.98 763.01 1601.3 763.07 1601.8 763.26 1603.27 759.56 1603.64 759.73 1605.73 760.31 1613.03 760.76 1618.8 760.88 1620.28 761.21 1624.49 761.28 1625.35 761.86 1632.68 762.61 1642.22 762.64 1642.48 762.89 1645.64 769.71 1645.12 769.72 1645.11 769.78 1645.88 769.8 1646.09 770.35 1652.86 770.87 1659.16 770.91 1659.66 772.65 1659.5 775.38 1659.26 778 1659.03 797.44 1657.3 797.44 1657.38 798.89 1672.54 799 1673.69 796.91 1677.28 796.1 1679.99 796.19 1682.03 792.42 1682.71 782.96 1684.41 782.92 1684.42 774.67 1685.9 774.47 1685.94 762.56 1688.07 762.08 1688.16 756.66 1689.1 752.92 1689.75 750.88 1690.11 749.9 1690.28 743.56 1691.38 742.72 1691.53 734.49 1692.98 727.15 1694.28 727.03 1695.6 726.95 1696.2 726.39 1701.57 725.51 1709.83 724.79 1715.88 724.38 1720.16 723.63 1726.57 722.88 1733.26 722.58 1736.09 722.2 1739.84 722.06 1740.82 721.92 1741.79 721.73 1743.58 721.59 1744.64 721.71 1745.86 721.74 1745.96 722.36 1746.81 724.05 1749 725 1748.28 726.15 1749.78 725.12 1750.91 725.45 1752.49 724.05 1753.61 723.33 1753.6 722.76 1754.88 722.68 1755.07 722.67 1755.21 722.69 1756.52 722.69 1756.57 722.7 1757.06 722.99 1758.3 723.35 1759.94 723.7 1760.42 725.33 1761.51 728.56 1763.67 730.97 1764.02 731.01 1764.27 731.09 1764.99 731.11 1765.14 729.53 1765.3 727.06 1765.51 723.42 1765.76 712.86 1766.8 712.39 1766.85 704.06 1767.67 676.66 1770.31 676.47 1770.33 666.44 1771.19 665.89 1771.24 659.21 1772.01 658.27 1772.15 656.55 1772.4 653.56 1772.85 653.47 1772.86 653.24 1772.89 644.19 1773.79 644.17 1773.79 642.56 1773.96 633.33 1774.88 632.88 1774.93 632.66 1774.95 631.36 1775.07 619.51 1776.21 617.13 1776.44 609.71 1777.2 607.18 1777.45 604.12 1777.76 604.08 1777.76 604.12 1777.91 604.51 1779.77 604.77 1781.18 605.32 1784.16 606.06 1788.15 606.07 1788.24 606.37 1789.85 606.99 1792.8 607.01 1792.92 607.74 1796.4 607.94 1797.45 608.2 1798.73 608.36 1799.56 608.52 1800.37 608.55 1800.44 608.56 1800.55 608.56 1800.57 608.56 1800.69 608.63 1803.35 608.64 1803.71 608.68 1805.54 608.68 1805.69 608.68 1806.03 608.61 1807.16 608.51 1808.64 608.47 1808.96 608.36 1810.6 608.33 1811.09 608.23 1812.45 608.21 1812.62 608.2 1812.84 608.13 1813.74 607.45 1817.51 607.2 1818.88 605.56 1825.35 605.18 1826.88 605.02 1827.56 604.58 1829.35 603.81 1833.52 602.97 1836.31 601.93 1838.48 601.33 1839.52 600.99 1840.26 600.38 1841.44 599.47 1843.25 596.29 1850.64 596.26 1850.71 595.17 1853.68 595.01 1854.1 594.04 1856.72 593.89 1857.1 593.46 1856.92 582.67 1852.3 582.66 1852.31 582.66 1852.32 582.64 1852.34 582.61 1852.39 582.56 1852.49 582.47 1852.63 582.32 1852.89 581.76 1853.86 580.19 1856.54 577.64 1860.9 575.45 1864.66 573.93 1867.27 573.3 1868.35 572.37 1869.94 570.81 1872.7 570.27 1872.5 569.77 1872.31 569.53 1872.22 567.39 1875.75 565.27 1879.42 565.12 1879.68 564.82 1880.19 561.48 1878.99 561.23 1879.63 560.65 1881.15 560.65 1881.16 560.1 1882.6 559.97 1882.94 559.94 1883.02 558.36 1887.14 558.31 1887.28 557.2 1889.58 556.91 1890.17 556.16 1892.21 555.56 1893.84 555.19 1894.84 554.7 1895.31 554.6 1895.41 554.3 1895.26 553.57 1894.96 551.64 1894.17 548.78 1892.47 546.11 1891.16 544.17 1890.14 543.61 1889.86 542.11 1889.11 541.84 1888.98 539.72 1888.23 538.56 1887.71 536.45 1886.72 536.42 1886.7 535.02 1886.14 533.13 1885.19 530.66 1884.2 527.6 1882.84 527.18 1882.67 525.2 1881.84 524.53 1881.56 521.75 1879.99 518.69 1878.74 516.39 1877.72 513.07 1876.49 511.84 1876.06 509.6 1874.83 509.49 1874.77 507.16 1873.54 504.5 1872.42 502.39 1871.47 500.84 1870.85 498.08 1869.64 495.97 1868.69 493.37 1867.64 491.9 1867.05 490.44 1866.31 487.84 1865.18 486.33 1864.55 484.46 1863.66 481.69 1862.64 478.26 1861.35 476.97 1860.99 476.9 1860.97 475.57 1860.23 474.82 1859.99 473.1 1859.33 469.97 1858.02 468.82 1857.54 468.82 1857.53 468.8 1857.53 468.22 1857.29 466.05 1856.86 463.54 1855.42 459.48 1853.68 455.75 1852.15 455.74 1852.15 452.37 1850.35 450.34 1849.56 448.14 1848.37 445.6 1847.41 443.72 1846.37 443.68 1846.34 441.54 1845.38 439.84 1844.65 438.6 1844.03 437.36 1843.46 436.18 1842.9 434.09 1842.11 432.28 1841.09 429.86 1840.25 427.15 1839.23 424.55 1837.88 424.35 1837.81 422.24 1837.09 420.27 1836.07 418.07 1835.51 415.08 1834.16 412.37 1833.37 409.77 1832.52 407.46 1831.73 405.34 1831.49 404.22 1830.99 401.84 1830.11 400.55 1829.67 399.32 1829.4 397.8 1828.99 396.31 1828.52 394.91 1828.08 393.41 1827.62 392.79 1827.43 388.73 1825.64 382.58 1823.77 379.81 1823.1 375.92 1821.91 371.24 1820.73 368.19 1820.22 364.75 1819.09 360.12 1818.36 356.06 1817.51 352.9 1816.78 350.14 1816.05 346.81 1815.42 342.47 1814.52 335.81 1813.68 333.33 1813.28 328.59 1812.15 324.75 1811.31 319.45 1810.52 315.5 1809.95 312.28 1809.44 309.8 1809.28 307.04 1808.54 303.09 1809.33 300.77 1810.29 299.93 1811.7 299.64 1813.84 299.68 1815.65 299.57 1816.43 299.45 1817.78 299.42 1818.84 299.45 1819.63 299.47 1820.96 299.08 1821.22 297.81 1820.96 296.95 1820.69 296.61 1821.01 293.91 1820.45 294.57 1819.57 298.05 1819.93 298.21 1818.23 298.55 1815.33 298.82 1813.09 298.87 1812.64 298.46 1812.06 298.08 1811.55 297.75 1811.09 297.33 1810.73 296.85 1810.44 296.26 1810.15 295.73 1809.91 294.97 1809.59 293.6 1808.99 292.02 1808.41 291.25 1808.12 290.46 1807.83 289.48 1807.67 287.77 1807.67 286.5 1807.83 285.26 1808.08 284.38 1808.23 282.73 1809.04 281.68 1809.87 280.73 1810.92 280.27 1814.9 280 1817.39 283.21 1817.9 283.07 1818.82 274.7 1817.72 274.84 1816.7 278.88 1817.25 279.35 1813.89 279.59 1812.19 278.44 1810.3 277.11 1809.07 275.42 1807.69 272.67 1806.28 271.44 1805.7 269.56 1805.19 267.67 1805.05 265.55 1805.33 263.98 1805.7 262.04 1806.42 260.24 1807.33 259.01 1808.32 257.74 1809.59 256.61 1811.48 256 1812.42 255.66 1812.94 255.58 1816.39 261.95 1816.57 261.93 1817.72 251.46 1817.34 250.84 1817.15 251.03 1816.56 251.37 1816.3 254.43 1816.45 254.73 1810.21 254.52 1809.76 254.28 1809.45 254 1808.97 253.33 1808.53 252.3 1807.86 250.8 1807.04 250.19 1806.87 248.09 1806.43 246.8 1806.1 245.34 1805.93 243.74 1806.1 241.79 1806.17 240.53 1806.14 238.37 1806.51 236.63 1806.76 234.57 1807.09 232.7 1807.47 231.26 1807.83 230.71 1808.23 230.45 1809.33 229.35 1811.48 229.03 1812.74 229.44 1813.41 228.83 1813.73 228.28 1813.87 225.75 1819.03 223.36 1824.07 220.87 1829.31 220.07 1830.98 219.61 1831.97 219.47 1832.38 219.37 1832.79 219.07 1833.94 218.92 1834.56 218.79 1835.18 218.7 1835.67 218.65 1836.16 218.65 1837.23 218.66 1837.81 218.72 1838.59 218.76 1838.9 219.76 1841.32 220.66 1842.17 222.24 1842.73 223.54 1842.67 224.72 1842.67 226.08 1842.34 226.47 1843.99 222.47 1845.1 219.31 1846.29 217.26 1848.13 217.04 1848.3 216.19 1849.14 214.05 1852.29 212.2 1854.97 211.38 1856.16 211.1 1856.59 210.73 1857 210.26 1857.35 209.75 1857.63 209.16 1857.86 183.2 1864.75 181.73 1865.11 180.46 1865.35 179.38 1865.37 178.44 1865.2 177.62 1864.97 176.71 1864.56 170.7 1860.73 167.57 1859.6 165.09 1859.15 163.52 1859.09 161.87 1860.39 160.97 1861.46 160.46 1862.14 159.73 1862.03 159.05 1861.63 159.22 1860.95 159.45 1860.5 160.01 1860.28 160.52 1860.11 161.14 1859.54 160.8 1858.64 159.5 1857.29 157.47 1856.61 154.12 1856.59 153.69 1856.62 153.55 1856.67 151.5 1857.17 149.29 1856.89 145.96 1857.12 141.79 1857.74 139.7 1857.85 137.56 1858.7 136.2 1859.15 134.96 1859.43 133.61 1859.43 132.96 1859.67 132.2 1859.43 132.21 1858.03 132.42 1857.4 132.48 1856.78 131.82 1856.4 131.97 1855.76 131.69 1855.14 130.79 1854.52 129.94 1854.07 129.2 1853.19 129.13 1852.53 129.15 1851.48 129.09 1850.97 129.38 1849.9 129.04 1848.6 128.76 1847.7 128.36 1847.02 127.49 1846.49 127.01 1845.66 126.39 1844.99 125.82 1844.2 125.31 1843.3 124.81 1842.96 124.58 1842.56 124.81 1841.94 124.86 1841.43 124.41 1840.64 124.92 1840.7 125.6 1841.15 125.82 1841.94 126.61 1842.34 127.8 1842.56 130.17 1841.49 132.42 1839.97 135.13 1838.27 136.88 1837.43 137.33 1836.52 139.76 1834.95 140.34 1834.26 140.68 1830.12 140.76 1830.12 141.34 1827.05 141.73 1824.34 141.96 1821.52 142.92 1818.53 144.09 1816.67 145.16 1815.49 146.98 1814.47 149.01 1813.22 150.48 1812.49 152.73 1810.01 153.28 1809.43 153.86 1809.12 154 1809.33 154.12 1809.4 154.35 1809.54 153.09 1810.81 151.04 1812.87 148.91 1814.05 146.68 1815.5 144.8 1817.44 143.51 1819.57 142.97 1821.26 142.69 1823.76 142.41 1825.02 141.78 1829.47 141.73 1829.81 142.06 1830.15 142.26 1830.16 142.84 1830.18 142.84 1830.26 142.84 1830.82 143.03 1830.82 142.99 1831.79 142.97 1832.03 142.96 1832.04 142.82 1832.01 142.35 1832.43 142.29 1833.29 142.86 1833.29 143.13 1833.31 143.07 1835.54 142.93 1835.59 142.84 1836.87 142.83 1837.2 143.06 1837.19 144.01 1837.32 145.71 1836.63 155.62 1832.57 158.05 1831.58 157.9 1830.96 157.46 1829.32 157.07 1827.65 156.64 1826.13 156.24 1825.21 156.15 1824.93 155.94 1824.53 155.62 1824.57 155.03 1824.76 155.02 1824.74 154.81 1824.4 155.9 1824.22 154.97 1820.53 154.29 1820.65 153.37 1820.88 153.66 1822.53 153.16 1822.7 153.14 1822.53 152.63 1820.66 155.02 1820.2 154.81 1818.93 154.53 1819.03 154.16 1819.14 154 1818.75 154.51 1818.63 153.95 1816.64 154.64 1816.61 154.95 1816.6 155.01 1816.82 157.88 1827.71 157.92 1827.86 158.07 1827.87 159.52 1827.91 161.65 1827.71 163.64 1827.57 165.41 1827.1 168.14 1826.05 169.7 1825.42 171.85 1824.48 173.06 1823.86 173.74 1823.55 174.96 1822.98 176.58 1822.32 178.09 1821.78 179.88 1821.08 180.99 1820.8 181.18 1820.78 182.16 1820.51 182.85 1820.13 182.69 1819.47 182.55 1819.2 182.62 1819.04 182.38 1818.64 181.4 1816.93 181.7 1816.78 182.59 1818.39 183.07 1818.13 183.34 1818.69 183.52 1818.57 183.71 1818.56 183.84 1818.7 183.87 1818.75 184.29 1819.48 184.35 1819.46 184.52 1819.41 184.71 1819.38 184.8 1819.38 184.93 1819.33 185.05 1819.28 185.18 1819.27 185.23 1819.24 185.31 1819.2 185.39 1819.19 185.43 1819.17 185.54 1819.15 185.63 1819.12 185.7 1819.08 185.79 1819.07 185.89 1819.06 185.97 1819.02 186.03 1819 186.1 1818.97 186.19 1818.95 186.26 1818.93 186.31 1818.9 186.37 1818.87 186.48 1818.84 186.57 1818.81 186.62 1818.79 186.73 1818.74 186.82 1818.71 186.93 1818.66 187.02 1818.62 187.09 1818.61 187.2 1818.58 187.25 1818.54 187.3 1818.53 187.41 1818.48 187.49 1818.45 187.58 1818.43 187.7 1818.39 187.81 1818.34 188.19 1818.25 188.27 1818.22 188.37 1818.19 188.46 1818.17 188.55 1818.14 188.73 1818.07 188.82 1818.02 188.89 1817.98 188.96 1817.93 189.03 1817.9 189.11 1817.85 189.18 1817.8 189.3 1817.74 191.98 1816.56 193.66 1815.7 193.29 1814.86 191.49 1810.82 192.97 1810.07 193.83 1812.13 193.08 1812.47 193.14 1812.59 194.16 1815.24 194.74 1814.98 195.25 1814.76 196.19 1814.31 197.22 1813.88 198.18 1813.4 200.87 1812.08 199.44 1809.71 199.25 1809.74 199.12 1809.76 198.81 1809.29 198.83 1808.84 199.15 1808.75 199.44 1808.73 199.74 1809.24 199.74 1809.68 201.08 1811.69 201.25 1812.05 202.21 1811.56 203.83 1810.56 204.97 1809.82 206.55 1808.6 207.77 1807.54 209.84 1805.74 210.31 1805.4 211.19 1804.77 213.12 1803.41 212.24 1802.36 210.94 1800.69 211.69 1800.33 212.26 1801.01 212.46 1801.24 213.31 1800.58 213.41 1800.5 213.98 1801.32 213.78 1801.46 213.08 1801.95 213.1 1801.96 213.31 1802.22 213.79 1802.81 214.18 1802.57 215.05 1801.93 215.81 1801.57 216.28 1801.18 216.51 1801 214.08 1798.1 214.44 1797.79 215.01 1798.46 214.88 1798.56 216.87 1800.75 217.02 1800.62 217.35 1800.37 217.8 1799.85 218.52 1799.17 219.38 1798.48 220.1 1797.81 220.98 1797.12 221.64 1796.57 222.23 1795.99 224.5 1794.55 227.44 1792.66 228.75 1791.75 230.05 1790.49 232.02 1789.24 233.72 1788.08 234.25 1787.77 229.04 1782.75 229.35 1782.47 234.77 1787.5 235.94 1786.46 236.65 1785.59 238.29 1783.74 239.79 1782.23 241.92 1780.49 243.9 1778.79 246.03 1777.31 246.58 1777 249.28 1774.87 251.97 1773.07 254.34 1771.69 256.13 1770.95 258.18 1769.89 259.07 1768.83 260.38 1768.01 261.93 1767.03 265.19 1764.1 267.48 1761.89 268.95 1759.93 269.6 1758.87 270.42 1757.08 267.81 1755.2 268.7 1752.67 270.82 1749.49 272.13 1747.04 272.29 1745.57 273.11 1745.98 273.11 1747.12 271.4 1749.98 269.11 1753.65 268.95 1754.22 269.19 1754.55 269.36 1755.36 271.8 1756.75 272.62 1755.77 273.27 1756.18 273.41 1756.25 274.38 1754.68 275 1753.57 275.16 1753.29 276.38 1751.12 275.89 1750.84 275.46 1750.58 275.56 1750.43 276.01 1750.7 276.54 1751.03 276.75 1750.7 276.26 1750.41 275.69 1750.08 275.76 1749.93 276.37 1750.29 276.75 1750.52 277.04 1750.01 276.46 1749.57 276.62 1748.84 273.84 1747.61 274.09 1746.39 274.74 1746.8 274.5 1747.45 278.12 1748.69 278.39 1748.14 279.01 1747.38 279.56 1746.73 280.31 1746.09 281.07 1745.58 280.15 1742.85 280.07 1742.39 280.27 1742.16 280.7 1742.26 280.71 1742.55 280.7 1742.82 280.63 1743.05 281.19 1744.86 285.71 1743.68 284.16 1737.75 281.75 1740.78 281.39 1740.22 281.92 1739.66 283.89 1737.28 283.49 1735.31 274.16 1727.45 273.07 1727.99 270.76 1727.62 268.64 1726.43 267.46 1724.44 266.52 1722.57 266.21 1721.51 250.81 1709.04 255.61 1703 255.67 1701.37 256.27 1700.52 255.04 1698.68 249.27 1690.06 242.29 1679.88 239.27 1677.22 239.62 1676.9 242.63 1679.47 249.71 1689.65 256.41 1699.6 256.92 1698.69 257.48 1697.45 257.98 1696.2 258.92 1695.33 259.91 1695.02 261.1 1695.2 261.72 1695.45 261.96 1695.65 262.5 1695.04 263.32 1694.12 286.63 1713.11 296.57 1721.21 306.07 1709.87 312.92 1701.79 314.9 1699.34 315.52 1698.27 315.77 1697.57 316.12 1696.28 316.09 1694.51 303.92 1693.4 304.05 1691.65 316.43 1692.78 316.91 1686.53 304.55 1685.54 304.92 1679.93 317.14 1680.75 317.56 1675 305.6 1673.89 305.92 1668.27 318.01 1669.07 318.57 1663.21 306.48 1662.42 306.6 1660.23 318.64 1661.32 318.82 1658.3 309.66 1647.89 301.93 1638.54 311.15 1630.94 319.13 1639.63 328.47 1650.62 327.61 1651.13 327.42 1652.19 329.73 1654.5 332.91 1657.78 335.15 1658.05 336.21 1657.93 337.45 1657.22 337.85 1655.92 338.03 1655.62 338.71 1654.78 342.38 1650.3 342.37 1649.92 342.22 1649.95 342.25 1650.23 338.81 1654.28 338.83 1654.1 341.06 1651.19 341.49 1650.53 341.14 1648.44 338.12 1649.15 337.96 1648.29 338.63 1648.09 340.04 1640.86 338.99 1640.84 338.96 1640.29 341.18 1640.37 340.51 1639.17 339.84 1638.42 339.65 1637.68 340 1636.97 340.47 1636.34 340.87 1634.96 341.14 1633.63 340.94 1631.86 340.63 1630.88 340.94 1630.01 341.46 1629.31 341.73 1628.68 342.12 1628.13 342.36 1627.62 342.05 1626.48 340.01 1622.52 336.05 1624.52 329.04 1627.57 328.54 1626.57 347.1 1617.47 345.74 1614.82 344.17 1612.05 344.17 1610.56 345.15 1609.38 351.08 1606.4 354.62 1604.63 356.62 1602.43 353.64 1603.06 330.98 1614.53 330.48 1613.61 340.19 1608.84 344.12 1606.62 345.04 1605.83 342.91 1601.98 321.91 1612.83 321.55 1612.11 342.57 1601.14 340.44 1596.91 329.18 1602.4 328.72 1601.56 340.11 1595.93 339.64 1594.93 326.5 1590.59 299.26 1604.32 295.05 1596.48 293.99 1598.39 291.5 1602.85 288.35 1608.47 286.9 1611.06 287.08 1611.13 286.47 1612.21 286.74 1612.42 285.21 1614.92 285.43 1615.04 284.83 1616.05 283.85 1615.49 284.36 1614.49 284.5 1614.56 284.9 1613.73 284.46 1613.52 285.46 1611.75 285.78 1611.91 286.48 1610.78 286.62 1610.89 288.1 1608.26 291.21 1602.72 293.73 1598.19 294.72 1596.34 294.6 1596.07 293.51 1596.31 286.51 1600.54 281.44 1606.03 282.31 1606.85 281.61 1607.6 280.78 1606.92 280.7 1606.78 277.08 1610.86 273.71 1614.58 268.52 1620.29 267.62 1626.62 267.8 1626.66 267.73 1627.29 267.54 1627.25 267.2 1629.47 267.42 1629.55 267.33 1630.11 267.13 1630.05 266.76 1632.34 267.31 1632.46 266.69 1636.52 266.19 1636.47 265.86 1638.69 266.1 1638.7 266.04 1639.37 265.8 1639.3 265.54 1640.78 265.79 1640.8 265.74 1641.45 265.52 1641.42 265.31 1642.84 265.78 1642.91 265.73 1643.29 265.68 1643.43 265.55 1643.58 265.39 1643.66 265.22 1643.69 265 1643.65 264.8 1643.59 264.63 1643.44 264.55 1643.27 264.63 1642.74 265.09 1642.8 265.33 1641.36 265.08 1641.33 265.18 1640.72 265.42 1640.76 265.62 1639.32 265.36 1639.3 265.47 1638.66 265.71 1638.68 266.04 1636.43 265.49 1636.35 266.04 1632.31 266.2 1632.36 266.25 1632.21 266.55 1632.23 266.89 1630.04 266.68 1630.01 266.78 1629.37 266.98 1629.47 267.28 1627.16 267.09 1627.12 267.18 1626.56 267.37 1626.58 268.27 1620.16 273.66 1614.24 278.82 1608.5 278.85 1608.5 281.23 1605.85 286.3 1600.33 293.53 1596.07 294.8 1595.79 294.51 1595.48 293.84 1595.37 292.6 1595.89 291.99 1596.25 291.44 1596.59 290.61 1597.09 290.28 1597.28 289.31 1597.68 288.26 1598.11 286.76 1598.73 285.44 1599.27 284.64 1599.82 283.26 1601.1 282.29 1601.99 279.17 1605.26 279.13 1605.23 275.36 1609.59 266.4 1619.98 257.14 1630.66 242.91 1646.82 236.66 1654.33 236.15 1653.95 244.36 1644.28 253.52 1633.95 258.84 1627.96 259.87 1626.57 262.29 1623.71 265.23 1620.4 266.91 1618.55 272.87 1611.76 274.48 1609.82 275.56 1608.41 277.41 1606.33 280.55 1602.77 283.19 1599.74 285.45 1597.54 288.76 1595.49 292.38 1593.82 292.8 1591.99 293.21 1591.17 293.73 1589.89 293.57 1587.68 293.21 1585.62 293.11 1584.23 293.26 1581.71 292.7 1579.96 292.29 1578.32 292.44 1575.49 292.18 1572.77 291.87 1571.22 291.15 1569.06 290.72 1566.9 290.71 1565.87 291.53 1557.84 290.64 1556.21 289.41 1555.13 288.41 1554.48 287.79 1553.81 286.97 1548.72 286.57 1546.18 286.29 1544.06 286.37 1543.43 286.83 1542.58 287.52 1542.08 288.25 1541.85 288.93 1541.84 292.34 1542.77 304.09 1545.95 304.66 1545.62 305.18 1545.33 305.79 1544.99 306.62 1544.55 306.9 1542.39 307.35 1537.83 308.02 1534.38 310.13 1530.48 311.13 1526.81 311.13 1522.69 311.91 1519.47 312.14 1515.9 312.14 1512.23 313.47 1508.78 315.36 1502.33 316.81 1497.1 318.03 1493.53 319.04 1487.41 320.48 1479.96 321.15 1474.84 321.93 1471.5 322.04 1467.83 323.82 1465.16 326.05 1463.26 328.16 1461.37 330.5 1456.7 332.28 1452.36 334.51 1447.46 337.06 1443.12 341.29 1434.77 346.86 1420.08 350.31 1407.62 354.98 1394.82 359.1 1380.57 361.99 1369.56 364.22 1354.86 365.78 1345.18 366.33 1341.73 367.22 1339.84 367.22 1337.28 367.11 1335.05 368.67 1328.27 369.57 1321.49 362.82 1320.69 362.85 1320.3 369.56 1320.77 369.56 1318.92 370.34 1313.91 370.79 1305.79 370.79 1300.67 370.23 1297.22 369.9 1293.65 370.23 1290.98 370.79 1286.75 371.01 1275.12 371.12 1268.3 371.01 1260.84 370.68 1255.54 371.55 1252.4 375.99 1245.37 380.31 1240.07 383.23 1235.42 383.23 1233.04 383.99 1231.09 385.07 1228.6 386.05 1226.65 386.8 1224.17 387.78 1221.57 388.32 1218.76 389.07 1217.35 390.16 1214.21 391.13 1210.54 391.56 1208.05 391.67 1205.67 391.9 1204.79 386.49 1204.44 386.36 1204.61 385.75 1204.61 385.78 1203.99 386.76 1204.02 386.81 1204.24 391.95 1204.54 392.32 1203.07 393.08 1197.88 393.83 1192.19 394.17 1187.69 395.24 1184.42 395.62 1181.07 396.07 1173.87 396.76 1169.04 396.76 1165.58 397.06 1161.39 397.14 1157.28 397.52 1153.81 397.48 1148.29 397.56 1143.76 397.14 1139.8 396.91 1135.39 396.72 1132 396.61 1128.46 396.57 1125.41 396.68 1123.2 396.45 1119.09 396.34 1113.73 396.04 1109.23 396.11 1106.83 396.19 1105.01 395.77 1104.02 395.62 1101.51 395.62 1099.11 395.77 1096.14 395.16 1091.38 395.01 1087.69 394.82 1084.56 394.44 1080.61 393.94 1075.92 393.64 1073.87 393.14 1070.75 392.99 1067.47 392.19 1059.29 391.51 1053.54 390.9 1048.82 390.29 1044.21 389.68 1040.21 389.49 1037.21 389.03 1034.2 388.65 1026.7 387.89 1022.28 387.47 1018.29 386.44 1014.86 386.41 1013.79 370.45 1016.84 362.69 1022.44 361.43 1022.66 361.58 1023.43 357.66 1024.3 357.28 1022.74 361.16 1021.67 361.39 1022.25 362.84 1021.71 370.34 1016.34 386.4 1013.26 386.37 1011.97 385.6 1006.14 384.81 1000.74 383.86 997.54 356.33 1006.45 356.1 1005.84 383.67 996.9 382.6 993.28 380.69 981.28 379.06 973.52 375.6 957.75 374.72 954.18 373.68 946.75 372.46 940.23 372.34 936.89 371.68 933.77 370.49 929.69 369.9 925.83 369.67 922.04 368.86 917.81 368.04 914.55 366.56 909.35 365.15 904.98 364.77 901.26 364.03 897.11 363.22 892.88 361.44 887.91 360.54 883.45 360.38 879.92 Z" id="CALLAO" class="area active" title="CALLAO"></path>
<path d="M 528.58 173.95 532.82 177.93 533.93 176.86 535.64 178.31 537.27 179.69 541.19 183.02 541.24 186.41 541.32 191.66 541.37 194.02 540.27 197.47 539.88 200.1 540.01 201.29 540.53 201.37 540.32 205.13 542.03 210.15 542.94 213.15 543.89 216.3 543.2 216.78 541.9 217.68 538.99 219.57 535.74 220.86 532.7 216.2 529.91 217.91 526.83 213.62 524.34 215.27 524.54 215.62 522.01 217.73 524.51 221.55 520.4 223.84 524.14 229.3 527.68 232.7 529.99 233.7 530.44 233.71 532.79 238.13 536.84 242.96 539.46 239.68 540.62 238.11 541.13 237.78 541.7 237.76 543.15 238.04 544.2 237.82 546.02 236.34 546.44 236.12 546.85 236.12 547.97 236.7 548.48 236.85 549.74 236.98 550.46 237.02 553.95 238.64 555.59 239.84 556.14 240.41 556.35 240.89 556.6 241.58 557.29 243.07 558.06 245.19 558.14 246.01 558.1 247.29 558.07 247.58 557.98 248.36 557.69 249.5 557.33 250.55 556.84 251.4 556.62 252.14 556.6 252.61 556.81 253.23 557.2 254.14 557.28 254.28 557.58 254.9 557.56 255.45 557.54 256.15 557.58 257 557.7 257.57 557.79 257.97 558.03 258.76 558.41 259.65 558.42 259.69 558.95 260.33 559.44 260.74 560.3 262.89 560.02 263.32 559.63 263.56 558.69 263.82 557.79 264.04 556.94 264.31 556.1 264.66 554.85 265.44 553.62 266.27 553.31 266.63 553.27 267.23 552.82 268.5 552.51 270.09 552.14 270.92 551.66 271.81 551.12 272.13 550.19 272.57 549.26 272.9 548.17 273.44 547.95 273.71 547.83 274.28 547.8 275.24 547.96 276.24 548.13 276.83 547.92 276.97 547.47 277.45 546.74 278.29 545.97 279.39 545.74 279.74 545.67 280.47 545.45 281.4 545 282.13 544.73 282.4 544.25 282.45 543.62 282.59 542.78 282.74 541.91 283.02 541.38 283.39 540.85 283.86 539.71 284.6 538.83 284.77 538.39 284.89 536.52 287.13 535.09 288.39 533.95 289.25 533.11 290.24 532.51 291.24 532.08 293.29 531.88 294.36 531.97 295.31 532.1 296.28 529.86 297.15 528.67 297.4 527.75 297.7 526.94 298.27 526.16 298.84 524.54 300.07 523.16 300.96 520.64 303.15 519.13 304.62 518.16 305.74 517.59 306.84 516.88 308.51 516.45 310.2 516.03 311.35 514.91 313.5 514.52 314.12 513.05 315.74 510.37 317.52 507.93 317.68 506.46 317.58 505.93 317.69 505.29 318.11 504.74 318.89 503.28 320.82 502.02 322.57 500.83 323.85 497.42 324.99 495.31 325.9 494.02 326.53 493.52 327 493.16 327.81 492.91 328.61 492.91 329.57 492.91 330.88 492.63 331.5 492.12 332.05 491.42 332.62 490.54 333.17 490.17 333.25 489.83 333.25 489.52 333.36 489.07 333.85 488.19 335.04 487.3 336.25 486.65 337.54 485.82 339.73 485.52 341.11 485.62 343.25 473.93 345.21 471.65 344.91 473.41 340.28 471.17 338.35 469.91 327.63 465.68 327.65 465.28 310.5 468.68 310.4 468.39 300.29 432.81 316.37 432.89 317.7 426.51 319.07 423.58 315.23 419.49 309.88 418.58 307.71 418.05 305.84 417.73 303.34 417.62 301.52 417.89 298.28 422.17 259.43 424.68 253.14 428.34 248.01 434.61 241.83 440.45 236.12 442.53 234.62 445.57 232.6 447.97 231.96 451.49 231.26 456.06 231.01 464.49 231.91 469.66 231.88 472.79 231 478.5 228.93 488.87 224.89 493.36 220.91 495.67 217.98 498.28 212.18 501.22 203.83 502.18 202.42 509.39 193.68 514.49 188.43 528.58 173.95 Z" id="MI_PERU" class="area" title="MI PERU"></path>
<path d="M 431.46 868.01 431.38 867.96 430.31 866.93 427.58 865 425.36 863.99 425.25 863.92 425.07 863.84 424.62 863.63 423.72 863.23 423.29 863.03 423.16 862.97 421.86 862.57 421.71 862.54 421.36 862.47 421 862.42 420.45 862.38 419.9 862.39 419.35 862.45 418.92 862.53 418.7 862.57 418.05 862.73 417.42 862.94 417.17 863.04 416.8 863.18 416.2 863.47 415.66 863.77 415.13 864.11 414.63 864.47 414.15 864.87 413.7 865.3 413.7 865.29 413.11 865.78 408.04 869.9 406.86 870.85 406.85 870.86 406.72 870.94 404.77 872.11 403.52 872.86 402.92 873.07 401.17 873.52 400.47 873.69 399.18 874.02 397.69 874.44 395.63 874.99 394.62 875.26 393.76 875.49 392.88 875.75 392.6 875.84 391.79 876.08 391.23 876.25 389.21 876.86 387.45 877.35 385.67 877.8 380.15 878.82 379.31 878.94 365.75 879.57 362.21 879.81 360.38 879.92 360.33 878.96 360.08 878.34 359.73 877.22 359.13 874.55 358.1 871.36 356.98 867.87 356.31 865.42 355.13 862.6 353.94 858.07 352.12 854.56 351.96 853.76 351.64 852.91 351.18 852.03 350.35 851.05 349.69 850.67 349.9 850.08 350.33 849.76 350.28 848.93 350.06 848.29 349.82 847.76 349.96 847.3 349.72 846.61 349.53 845.94 349.29 845.34 349.18 844.85 348.62 844.66 347.61 844.66 346.27 844.71 344.54 844.79 344.62 844.23 345.15 844.15 346.3 844.18 347.45 844.07 348.99 843.86 351.66 843.75 351.9 843.22 351.8 842.63 352.01 841.64 351.88 840.79 352.14 840.01 352.14 839.29 352.55 838.57 352.17 837.77 352.01 837.21 352.06 836.44 351.9 835.5 352.23 834.38 352.01 833.53 351.77 832.32 351.72 831.2 351.88 830.16 351.64 829.41 351.69 827.76 351.61 826.9 351.32 825.68 351.02 823.97 350.84 822.53 350.92 821.06 350.49 819.72 350.25 818.65 350.09 817.48 349.64 816.44 349.77 815.53 348.75 811.71 347.84 809.96 347.77 809.51 347.67 809.12 347.58 808.56 347.06 806.01 346.73 805.12 346.48 804.31 346.27 803.74 346.11 803.12 345.97 802.53 345.82 801.89 345.63 801.11 345.48 800.53 345.07 799.01 344.97 798.44 344.95 798.03 344.94 797.48 344.85 796.9 344.83 796.24 344.51 794.31 343.93 792.17 343.7 790.78 343.35 788.58 342.6 785.68 342.14 783.14 341.09 779.55 340.69 777.87 340.11 775.26 339.76 773.24 339.61 771.46 339.47 770.91 339.24 770.22 339.07 769.58 338.93 769.05 338.82 768.59 338.63 767.9 338.48 767.31 337.97 765.91 337.74 765.27 337.49 764.56 337.29 763.96 337.19 763.55 337.06 763.05 336.78 762.33 336.53 761.51 336.3 761.01 336.05 760.59 335.62 759.92 335.19 759.81 334.71 759.76 334.15 759.68 333.88 759.44 333.94 759.17 334.39 758.64 334.93 758.14 335.27 757.91 335.43 757.33 335.38 756.63 334.91 756.12 334.7 755.46 334.5 755.13 334.07 754.84 333.35 754.92 332.04 755.27 331.48 755.43 330.92 755.43 330.41 755.81 329.98 756.05 329.61 756.05 329.4 755.94 329.24 755.62 329.13 755.19 329.29 754.92 329.61 754.74 329.88 754.55 330.15 754.36 331.03 754.36 332.04 754.34 332.84 754.31 333.64 754.18 333.48 753.7 333.59 753.3 333.7 752.98 333.54 752.41 333.56 751.83 333.66 751.46 333.57 751.29 333.46 750.81 333.59 750.12 333.51 749.34 333.14 748.17 332.68 747.05 332.25 746.06 331.69 744.91 331.19 743.44 330.97 742.08 330.31 740.75 330.2 739.71 329.68 739.07 329.48 738.52 329.44 737.97 329.47 737.56 329.5 736.77 329.36 736.19 329.14 735.68 328.86 735.03 328.11 733.44 327.87 732.89 327.62 732.35 327.29 731.73 326.95 730.93 326.37 729.53 326.15 728.83 325.95 728.27 325.72 727.63 325.48 727.01 325.34 726.54 325.19 725.99 324.95 725.45 324.79 725.09 324.58 724.51 324.31 723.93 324.06 723.35 323.74 722.81 323.48 722.29 323.35 721.82 323.09 721.17 322.75 720.51 322.36 719.88 322.1 719.36 321.93 718.94 321.79 718.46 321.72 718.07 321.52 717.31 321.5 716.9 321.4 716.31 321.21 715.78 321.03 715.42 320.86 715.05 320.73 714.61 320.52 714.16 320.38 713.68 320.24 713.3 320.04 712.82 319.76 712.17 319.53 711.46 319.42 710.84 319.28 710.41 319.05 709.75 318.7 708.86 318.43 708.22 318.17 707.58 318.16 707.06 318.24 706.66 318.26 706.21 317.97 705.12 317.69 704.42 317.47 703.86 317.41 703.31 317.34 702.78 317.2 702.15 316.7 701.36 316.45 700.57 315.92 700.1 315.4 699.14 315.29 698.53 315.1 698.14 314.88 697.32 314.74 696.77 314.02 695.65 313.35 694.8 313.05 694.34 313.03 693.68 313.15 692.96 313.39 692.44 313.63 692.04 313.75 691.51 313.7 690.72 313.41 690.09 313.03 689.48 312.64 689.13 312.32 688.79 311.75 688.07 311.27 687.62 310.88 686.94 310.75 686.37 310.86 685.4 310.91 684.83 310.98 684.37 310.86 683.45 310.76 682.94 310.65 682.54 310.61 682.08 310.1 681.72 309.27 681.28 309.22 680.76 309.94 680.28 310.61 679.59 310.75 678.63 311.43 678.23 311.84 678.1 312.36 677.78 312.49 677.11 311.84 676.34 311.2 674.98 311.02 674.4 310.85 673.97 310.74 673.58 310.55 673.2 310.44 672.8 309.9 671.7 308.67 669.9 308.46 669.37 307.87 669.39 307.12 669.53 306.08 669.62 305.49 669.35 305.12 668.76 305.02 668.36 304.77 667.8 304.1 666.86 303.62 666.65 303 666.83 302.32 667.19 301.73 667.02 301.38 666.81 300.82 666.37 300.19 666.3 299.13 666.07 298.83 665.43 299 664.84 299.34 664.46 299.72 664.08 300.09 663.55 300.27 662.92 300.48 661.98 300.94 661.35 301.63 660.94 301.9 660.46 301.98 659.84 301.77 659.2 301.28 658.55 300.74 658.25 300.26 658.12 300.15 657.49 300.48 657.01 300.81 656.74 301.09 656.43 301.14 655.98 301.25 655.44 301.81 655 302.38 654.67 302.45 654.19 302.25 653.76 301.76 653.39 301.29 652.87 300.88 651.95 300.73 651.32 300.47 650.98 299.88 651.04 299.06 651.18 298.35 651 297.7 650.74 297.23 650.31 296.71 649.98 296.2 649.95 295.99 649.46 296.31 648.95 297.03 648.34 297.49 647.89 297.8 647.52 298 646.91 298.59 646.76 299.17 647.07 299.71 647.38 300.16 647.45 300.58 647.39 300.91 647.14 301.14 646.45 301.35 645.84 301.55 645.06 301.76 644.55 302.14 643.93 302.27 643.35 302.52 642.4 303.02 641.99 303.93 641.86 304.7 641.72 304.91 641.14 305.01 640.56 305.31 640.1 305.48 639.56 305.87 639.12 306.3 639.19 306.69 639.39 307.34 639.5 307.91 639.53 308.32 639.4 308.52 638.95 308.2 638.68 307.95 638.36 308.05 637.83 308.91 637.64 308.9 637.21 308.63 636.72 308.05 636.27 307.58 635.6 307.31 635.28 306.75 635.25 305.67 634.91 305.29 634.61 304.81 634.26 304.36 633.89 303.99 633.61 303.35 633.32 303.03 632.89 302.86 632.19 302.69 631.64 302.61 630.99 302.87 630.4 303.33 630.04 303.79 629.62 304.06 629.28 304.6 628.64 305.24 628.06 305.5 627.74 305.63 627.22 305.6 626.54 305.21 625.94 304.84 625.52 304.52 624.98 304.25 624.52 304.02 623.92 303.79 623.27 303.67 622.75 303.48 622.03 302.72 621.39 302.46 621.01 302.14 620.36 302.48 619.89 303.02 619.4 302.93 618.78 302.8 618.24 302.69 617.72 302.44 616.84 302.28 616.19 302.22 615.68 302.21 615.25 302.12 614.56 302.01 613.97 301.94 612.89 301.91 612.34 301.91 611.75 301.94 611.1 301.91 610.67 301.86 610.19 301.63 609.13 301.26 607.94 300.91 607.15 300.78 606.74 300.56 606.22 300.15 605.46 300.02 605.06 299.86 604.66 299.59 604.24 299.37 603.73 298.99 603.12 298.75 602.7 298.32 602.03 297.87 601.13 297.7 600.72 297.53 600.31 297.33 599.79 297.13 599.15 296.84 598.16 296.41 596.8 296.07 595.76 295.63 594.88 295.38 594.4 295.01 593.66 294.55 593.04 294.21 592.41 293.91 591.93 293.74 591.43 293.39 590.88 293.18 590.43 292.92 589.89 292.67 589.49 292.4 588.81 291.97 587.92 291.79 587.46 291.51 586.75 291.1 585.62 290.97 585.15 290.7 584.37 290.55 583.89 290.38 583.36 290.15 582.88 289.92 582.28 289.51 581.7 289.2 581.29 288.95 580.78 288.69 580.27 288.35 579.65 288.18 579.1 287.86 578.21 287.79 577.63 287.52 576.87 287.08 575.78 286.6 575.04 286.22 574.53 285.98 574.17 285.65 573.64 285.23 573.26 284.83 572.79 284.41 572.2 283.97 571.49 283.55 570.72 282.97 570.17 282.44 569.54 282.1 569.22 281.67 568.62 281.45 568.2 281.14 567.69 280.93 567.17 280.55 566.45 280.38 566.05 279.95 565.23 279.4 564.44 278.91 563.69 278.13 562.56 277.98 562.04 277.73 561.51 277.44 561 277.11 560.47 276.91 560.04 276.59 559.38 276.31 558.81 276 558.36 275.74 557.92 275.47 557.51 275.16 556.87 274.74 556.12 274.29 555.53 273.96 554.94 273.65 554.46 273.41 553.92 273.18 553.47 272.66 552.05 272.33 551.46 271.92 550.71 271.6 550.13 271.33 549.69 271.03 549.11 270.55 548.53 270.13 547.99 269.72 546.85 269.46 546.14 269.1 545.46 268.95 544.86 268.71 544.52 268.36 543.91 268.15 543.51 267.34 542.32 267.05 541.84 266.78 541.35 266.68 540.85 266.59 540.35 266.28 539.87 266.11 539.43 265.97 538.89 265.8 538.15 265.62 537.74 265.48 537.36 265.35 536.91 265.07 536 264.87 535.51 264.67 534.97 264.56 534.46 264.44 534.04 264.33 533.53 264.13 532.97 263.72 531.75 263.52 531.1 263.1 530.48 262.75 529.8 262.46 529.22 262.22 528.75 261.84 528.23 261.66 527.73 261.38 527.08 261.14 526.55 260.97 526.02 260.88 525.5 260.56 524.93 260.39 524.55 260.09 523.96 259.5 523.02 259.18 522.29 259.03 521.87 258.7 521 258.58 520.61 258.27 519.96 258.01 519.28 257.73 518.57 257.5 517.98 257.35 517.4 257.18 516.89 256.81 516.01 256.68 515.46 256.53 514.82 256.12 513.2 255.86 512.28 255.61 511.32 255.4 510.51 255.28 509.69 255.03 508.72 254.7 507.68 254.49 507.02 254.25 506.43 254.11 505.94 253.92 505.35 253.64 504.19 253.27 503.14 253.08 502.62 252.81 502.11 252.52 501.46 252.41 501.05 252.26 500.43 252.16 499.98 251.93 498.96 251.8 498.34 251.66 497.8 251.53 497.32 251.45 496.8 251.32 496.09 251.04 495.49 250.77 494.77 250.43 494.05 250.29 493.52 249.85 492.47 249.5 491.58 249.12 490.7 248.69 488.94 248.5 488.07 248.31 487.42 248.16 486.97 247.97 486.31 247.86 485.71 247.77 484.93 247.7 484.48 247.58 483.53 247.53 482.9 247.46 481.99 247.42 481.33 247.35 480.69 247.28 480.28 247.21 479.7 247.04 478.91 246.9 477.99 246.56 477.07 246.46 476.55 246.13 475.8 245.91 475.31 245.75 474.94 245.34 474.13 245.06 473.54 244.88 472.99 244.3 470.74 243.97 468.96 243.91 467.19 243.73 465.83 243.57 465.14 243.36 463.05 243.09 462.3 242.78 461.15 242.05 458 240.61 454.52 240.2 453.39 239.8 452.07 239.38 450.8 238.43 448.37 238.24 447.89 238.1 447.35 238.07 446.7 237.93 445.99 237.66 444.96 237.31 443.41 236.53 440.68 235.88 438.08 235.64 437.46 235.23 436.22 234.82 434.85 234.57 433.91 234.23 433.21 233.79 431.97 233.34 430.78 232.89 429.41 232.5 428.22 232.16 427.43 231.26 425.01 230.99 424.6 229.75 421.73 229.52 420.73 229.38 420.33 228.71 417.97 228.37 416.54 227.88 415.1 227.6 414.46 227.02 412.2 226.38 409.84 225.55 407.69 224.9 406.28 224.57 405.54 223.75 403.66 223.6 403.25 223.16 402.5 222.82 401.84 222.49 401.16 222 399.76 221.29 398.32 220.95 397.58 220.66 396.61 220.3 394.97 219.95 393.75 219.61 392.28 219.3 391.6 218.59 389.72 218.27 389.03 217.73 387.81 217.21 386.17 216.44 384.56 215.79 383.15 215.41 382.61 214.46 380.08 213.67 378.25 212.95 376.85 212.67 376.19 212.21 374.85 211.82 374.1 211.45 372.85 210.97 371.41 210.53 370.17 210.19 369.6 209.68 368.43 209.4 367.92 208.96 366.97 208.41 366.02 207.96 365.36 207.35 364.31 206.7 362.4 206.43 361.88 206.04 360.93 205.53 359.39 205.22 358.81 203.67 356.41 202.47 354.59 201.51 351.97 200.9 351.05 200.7 350.51 199.97 348.94 199.62 348.19 199.26 347.4 199.08 346.92 198.4 345.39 198.15 345 197.59 343.88 197.34 343.3 196.68 342.28 196.14 341.28 195.35 339.41 194.91 338.82 194.13 337.19 193.48 336.05 192.94 334.56 192.45 333.49 191.95 332.47 191.44 331.74 190.89 331.03 190.55 330.55 190.33 330 189.29 328.48 188.81 327.62 188.11 325.9 187.75 325.19 187.37 324.57 187.23 324.14 186.55 322.74 186.2 322.01 185.36 320.11 185.15 319.68 184.97 319.25 184.32 318.05 184.03 317.48 183.65 316.86 183.33 316.38 183.13 315.96 182.59 315.02 182.31 314.66 182.03 314.08 181.67 313.47 181.39 312.95 180.81 311.98 180.17 311.02 179.77 310.33 179.4 309.74 178.93 309 178.72 308.58 177.97 307.36 177.42 306.37 176.83 305.47 176.48 305.13 174.45 302.03 173.57 300.6 173.08 299.74 172.82 299.17 172.5 298.69 171.9 297.76 171.71 297.29 171.51 296.84 171 296.06 170.67 295.61 170.11 294.47 169.41 293.02 169.02 292.32 168.55 291.6 167.68 290.15 167.14 289.29 166.7 288.47 166.08 287.51 165.78 286.99 165.43 286.27 164.88 285.01 164.76 284.58 164.41 283.88 163.53 282.39 163.29 282.08 163.02 281.63 162.64 281.18 161.43 279.72 160.56 278.67 159.19 277.19 158.4 276.2 157.74 274.95 157.33 274.49 156.93 274.03 156.28 273.07 155.73 272.2 155.49 271.69 155.21 271.11 155.05 270.61 154.7 270.02 153.79 268.35 153.13 266.68 152.45 265.37 152.26 264.84 152.22 264.15 151.71 263.22 151.29 262.33 150.78 261.87 150.48 261.49 149.95 261.11 149.31 260.98 148.53 261.3 147.92 261.66 146.89 262.67 144.94 263.88 143.71 264.84 143.17 265.03 142.69 264.9 142.54 264.38 142.96 263.71 144.05 263.26 144.6 262.68 145.27 262.3 146.35 261.49 146.85 261.27 147.41 260.87 147.81 260.73 148.45 260.45 148.93 260.11 149.36 259.74 149.87 259.08 149.9 258.67 149.58 258.2 149.28 257.82 148.8 257.45 148.02 256.49 147.43 255.14 146.47 254.17 145.8 253.34 145.15 252.68 144.93 252.29 144.61 252.01 144.35 251.45 143.75 250.45 143.24 249.72 142.41 248.8 141.91 248.07 141.53 247.31 141.09 246.56 140.32 244.53 139.54 242.59 139.38 242.02 138.27 240 137.67 238.88 136.78 237.57 135.57 235.99 135.23 235.56 134.35 234.26 132.95 232.49 132.13 231.52 130.93 230.22 130.48 229.74 130.18 229.34 129.87 229.07 128.92 227.46 127.42 225.27 126.35 224.08 125.12 222.62 124.72 222.09 123.59 220.74 122.83 220.05 121.79 218.93 121.55 218.58 121.26 218.16 120.92 217.42 120.48 216.4 119.98 214.9 119.42 213.29 118.19 211.38 117.62 210.48 117.26 209.76 116.87 209.11 116.32 208.41 115.91 207.96 115.45 207.52 114.09 206.58 113.4 205.93 112.26 205.12 111.7 204.8 111.2 204.31 110.45 202.63 109.9 202.01 109.65 201.66 108.56 200.71 108.12 200.19 107.61 200.31 107.39 199.92 106.88 199.21 106.47 198.77 106.21 198.43 105.63 197.75 105.1 197.09 104.76 196.76 104.32 196.17 103.36 195.38 102.58 194.95 101.36 194.25 100.23 193.84 99.86 193.65 99.19 193.51 98.24 193.16 97.79 193.17 97.25 193.1 96.13 193.14 95.55 193.16 94.85 193.29 93.94 193.29 93.3 193.44 92.63 194.02 92.19 194.53 91.88 194.91 91.48 195.62 90.6 196.65 90.11 197.43 89.88 197.94 89.67 198.35 88.92 198.87 88.53 199.32 88.14 199.52 87.08 198.84 86.23 198.77 85.63 198.84 84.92 198.45 84.38 198.15 84.71 197.78 85.29 197.75 85.95 197.73 86.4 197.61 87 197.26 87.17 196.79 86.88 196.5 86.77 196.1 86.45 195.62 85.77 195.18 85.34 194.98 84.44 194.87 83.62 194.5 83 194.43 82.32 193.77 82.06 192.99 81.7 192.47 80.96 192.06 80.32 192.25 79.65 192.64 78.26 192.82 77.74 192.92 77.55 193.39 77.55 193.92 77.14 194.5 76.68 194.64 76.25 194.91 75.97 195.24 75.52 195.59 75.06 195.63 74.56 195.29 73.62 194.61 72.99 193.92 72.36 193.82 71.45 193.92 70.55 194.12 70.99 194.4 71.35 194.85 70.94 195.28 70.17 195.63 69.37 195.8 68.84 195.86 67.73 196.42 67.2 196.91 66.75 197.05 65.69 197.1 65.17 197.12 64.29 197.66 63.71 197.88 63.1 198.02 62.57 197.97 62.07 197.74 61.36 197.08 61.21 196.54 61.27 195.69 61.19 195.29 60.78 195.15 60.29 195.41 59.69 195.9 59.34 196.38 58.62 196.67 58.07 196.79 57.62 197.2 57.08 197.63 56.82 198.02 56.57 198.66 56.3 199.03 55.89 199.2 55.27 199.17 54.66 199.13 54.24 199.03 53.36 199.22 52.8 199.31 51.98 199.76 51.55 199.82 50.93 200.06 50.43 200.4 49.97 200.6 49.49 200.51 49.03 199.85 48.86 199.07 48.96 198.35 48.94 197.85 48.65 197.41 48.2 197.05 47.7 196.75 47.12 196.54 46.42 196.14 45.85 195.69 45.13 194.83 44.88 194.33 44.59 193.58 44.51 193.14 44.35 192.64 44.06 192.3 43.52 192.03 42.67 191.62 41.64 191.19 41.12 191.43 41.16 192.11 41.03 192.54 40.73 192.88 40.38 193.13 39.86 193.33 39.31 193.29 38.66 192.96 38.27 193.12 38.01 193.43 37.45 193.92 36.86 194.22 35.98 194.2 35.04 194.16 33.91 193.99 33.16 193.98 32.46 193.87 31.37 193.65 30.48 193.12 29.86 192.38 29.4 191.6 29.06 190.8 28.76 190.43 28.31 189.95 28.04 189.31 27.48 188.55 27.37 187.64 27.27 187.19 27.63 186.61 28.25 186.22 28.67 185.78 29 184.93 28.67 184.6 28.24 184.46 27.61 184.32 27.29 183.81 27.94 183.74 28.58 184.02 29.21 184.04 30.44 184.28 31.57 184.58 32.42 184.69 33.09 184.56 33.52 184.51 34.43 184.14 35.12 183.33 35.64 183.02 36.15 183.02 36.73 183.29 36.92 182.74 36.92 182 37 181.27 36.97 180.67 36.7 180.05 35.36 178.79 35.43 178.19 35.76 177.78 36.46 177.39 37.17 177.27 37.96 177.21 38.44 177.14 38.94 176.76 39.24 176.23 39.55 175.84 40.13 175.49 40.99 175.31 41.85 175.34 42.28 175.26 42.63 175.02 42.76 174.62 42.29 173.53 41.82 172.66 41.46 171.72 41.3 170.85 41.44 170.24 41.46 169.28 41.27 168.53 41.13 167.48 41.03 166.62 40.82 165.87 40.52 165.35 39.53 163.78 39.33 163.18 38.94 162.82 38.06 162.94 37.27 163.27 36.44 163.52 35.59 163.62 34.98 163.47 34.46 163.47 34.05 163.37 33.41 163.58 32.7 163.59 31.86 163.47 31.06 163.09 30.46 163.25 29.89 163.68 29.34 164.1 28.6 164.26 27.68 164.12 26.91 163.85 26.02 163.75 25.3 163.41 24.81 163.23 23.97 163.41 22.95 163.68 22.14 164.16 21.58 164.26 20.5 164.44 19.88 164.37 18.76 164.5 18.27 164.5 17.59 164.37 16.53 164.36 15.79 164.02 15.2 163.55 14.35 163.06 13.49 162.82 12.71 162.77 11.83 162.89 11.41 162.59 11.24 161.8 11.24 161.15 11.33 160.51 11.64 159.54 12.1 159.34 12.51 159.22 12.99 159 13.32 158.5 13.43 158.05 13.83 157.6 12.81 156.78 12.09 155.97 11.03 155.34 10.04 154.97 9.39 154.59 8.98 154.15 8.74 153.43 8.98 153.1 10 153.03 10.41 152.81 11.01 152.25 10.92 151.02 11.23 150.35 11.68 149.75 12.03 149.58 12.4 149.26 13.08 148.86 13.81 148.35 14.66 148.24 15 147.96 15.13 147.35 15.06 146.74 14.53 146.08 14.45 145.52 15.44 145.11 16.33 144.92 16.63 144.59 16.59 144.14 16.47 143.74 16.7 143.15 17.07 142.57 17.45 142.24 18.06 142.13 18.61 142.37 20.26 142.41 21.07 142.95 21.83 143.62 22.23 143.86 22.64 143.86 23.06 143.73 23.37 143.49 23.63 142.95 23.97 142.17 24.23 141.54 24.45 140.73 24.47 140.01 24.66 139.53 24.9 138.88 24.88 137.71 25.03 137.17 25.22 136.79 25.31 136.05 25.22 135.47 24.93 134.61 24.42 133.04 24.09 131.96 23.73 130.95 23.32 130.15 22.96 129.15 22.5 127.75 21.99 126.18 21.05 123.88 20.63 122.97 20.43 122.46 19.95 121.46 19.24 120.67 18.83 120.07 18.22 119.41 18 119.03 17.69 118.21 17.45 117.2 17.25 115.95 16.39 113.67 16.03 111.53 15.81 110.57 15.11 108.88 14.66 106.85 14.38 105.35 14.25 104.1 13.84 102.54 13.56 101.96 12.6 101.55 11.75 101.33 11.24 101.35 10.6 101.23 10.07 101.23 9.1 101.64 8.48 101.88 7.82 101.76 7.3 101.47 7.01 101.08 6.89 100.69 6.87 100.17 6.82 99.29 7.11 98.47 6.91 98 6.59 97.68 6.22 97.41 5.97 96.86 5.92 96.28 6.04 95.37 6.18 94.99 6.6 94.65 7.05 94.54 7.22 94.14 7.25 93.69 7.56 92.71 7.8 92.4 8.17 92.12 8.95 91.94 9.39 91.94 9.83 91.88 10.55 91.56 10.77 91.17 10.96 90.49 11.06 90.12 11.52 90.25 11.55 89.89 11.61 89.56 11.72 89.17 11.86 88.84 12.02 88.59 12.38 88.37 12.52 88.37 12.8 88.43 13.1 88.46 13.43 88.32 13.62 88.1 13.98 87.6 13.85 87.29 13.74 86.85 13.68 86.33 13.62 85.83 13.51 85.39 13.38 85.08 13.02 85.08 12.71 85.11 12.44 84.97 12.1 84.97 12.1 84.75 12.38 84.45 12.74 84.14 12.77 83.84 12.35 83.53 12.19 83.29 11.86 83.04 11.63 82.43 11.36 82.1 10.97 81.3 10.75 80.69 10.56 80.33 10.17 79.75 9.81 79.44 9.51 79.25 9.12 79.03 8.81 78.81 8.7 78.39 8.51 77.92 8.23 77.67 7.96 77.48 7.65 77.34 7.38 77.26 6.77 77.29 6.55 77.51 6.3 77.7 5.75 77.98 5.8 77.48 5.86 76.98 5.5 77.18 4.99 77.58 4.88 77.43 4.44 77.44 4.23 77.23 3.92 77.16 3.61 77.23 3.44 77.44 3.3 77.75 3.06 77.75 2.72 77.61 2.51 77.4 2.2 77.5 2.06 77.85 1.79 78.37 1.34 78.61 1 78.69 2.39 74.04 5.92 69.29 9.65 65.66 9.8 65.64 15.51 61.38 17.75 60.17 19.14 59.42 21.84 58.31 23.42 58.12 25.47 58.4 27.42 60.08 29.94 64.36 31.8 66.22 33.01 68.36 33.75 70.22 34.31 72.18 34.5 73.39 35.89 74.32 38.31 75.43 38.97 75.71 43.9 76.27 44.46 76.27 48.83 75.25 51.72 74.5 53.11 73.76 55.25 73.48 56.84 73.76 58.51 74.04 60.95 74.64 67.14 77.73 69.32 79.35 72.3 79.93 75.07 79.95 77.22 79.81 78.94 79.65 80.03 79.3 81.43 77.56 82.4 75.35 82.53 73.8 82.32 71.86 79.67 65.69 79.85 64.14 81.04 62.88 82.74 62.13 85.91 61.32 89.22 59.53 92.81 57.64 96.36 56.63 100.74 57.26 101.15 57.31 108.12 58.21 112.2 59.28 116.4 61.06 121.58 62.84 126.68 64.72 128.89 65.48 130.15 65.98 130.64 66.09 133.57 65.5 135.03 64.84 136.73 63.31 139.57 59.78 140.92 58.59 143.43 57.77 145.33 57.87 147.56 59.2 152.66 63.09 154.29 64.55 160.89 65.26 164.31 66.67 168.31 66.74 172 66.12 173.72 65.92 174.37 65.95 174.54 66.52 178.59 66.16 180.76 65.23 181.24 63.71 181.21 61.39 181.5 57.82 181.32 52.28 184.69 51.43 186.74 51.63 187.23 52.47 188.21 52.73 190.31 52.56 192.34 51.76 194.38 51.7 194.78 51.79 195.03 51.84 225.51 58.77 226.95 53 229.61 48.84 230.37 46.14 233.09 39.58 233.52 38.42 233.91 37.37 235.93 34.35 238.32 33.81 241.69 34.05 244.73 34.3 246.99 32.99 248.54 29.99 250.33 28.35 251.19 27.57 252.06 26.15 252.97 25.45 255.19 24.8 257.36 24.51 259.31 24.44 262.67 24.12 265.68 24.19 267.33 24.4 268.69 25.52 269.89 26.24 273.17 28.81 277.83 29.29 281.6 28.37 284.88 27.12 286.28 23.94 286.88 21.85 287.29 20.38 287.48 16.32 289.21 13.53 289.77 11.93 294.53 11.34 296.78 11.5 297.44 11.76 299.61 12.61 302.02 13.79 304.65 15.03 306.67 15.93 309.76 16.68 312.34 17.31 314.4 18.98 315.63 20.99 316.63 22.54 318.97 23.64 321.62 24.3 324.37 24.71 327.75 24.01 330.51 23.15 334.26 21.51 336.72 19.43 338.59 18.22 340.22 17.96 342.42 17.37 344.99 16.47 346.54 15.29 348.47 12.93 349.62 9.39 351.01 4.01 382.46 1 382.85 3.62 384.09 3.69 385.56 4.18 387.77 4.07 388.67 4.37 389.79 4.74 391.24 4.61 392.26 6.3 396.1 3.6 398.28 6.84 401.42 11.37 402.74 9.03 404.14 6.84 404.62 4.65 406.08 4.56 406.76 4.18 406.65 2.27 408.51 1.33 409.32 2.4 411.42 2.38 414.05 2.8 414.67 5.73 419.46 5.72 420.48 5.32 422.62 6.8 424.05 7.23 426.83 7.6 428.51 8.18 429.58 8.63 430.9 11.24 431.92 10.91 432.36 11.85 435.06 11.18 440.36 7.7 443.46 5.75 447.05 14.76 449.86 21.7 453.82 31.15 479.7 61.1 485.55 67.53 493.01 76.07 495.01 78.27 498.2 81.41 518.98 97.98 511.83 106.93 519.61 116.29 530.8 123.94 530.05 124.87 523 152.06 522.53 154.62 522.69 157.32 523.77 159.84 532.78 169.55 532.84 169.61 532.81 169.63 528.58 173.95 514.49 188.43 509.39 193.68 502.18 202.42 501.22 203.83 498.28 212.18 495.67 217.98 493.36 220.91 488.87 224.89 478.5 228.93 472.79 231 469.66 231.88 464.49 231.91 456.06 231.01 451.49 231.26 447.97 231.96 445.57 232.6 442.53 234.62 440.45 236.12 434.61 241.83 428.34 248.01 424.68 253.14 422.17 259.43 417.89 298.28 417.62 301.52 417.73 303.34 418.05 305.84 418.58 307.71 419.49 309.88 423.58 315.23 426.51 319.07 432.89 317.7 432.81 316.37 468.39 300.29 468.68 310.4 465.28 310.5 465.68 327.65 469.91 327.63 471.17 338.35 473.41 340.28 471.65 344.91 473.93 345.21 485.62 343.25 485.52 341.11 485.82 339.73 486.65 337.54 487.3 336.25 488.19 335.04 489.07 333.85 489.52 333.36 489.83 333.25 490.17 333.25 490.54 333.17 491.42 332.62 492.12 332.05 492.63 331.5 492.91 330.88 492.91 329.57 492.91 328.61 493.16 327.81 493.52 327 494.02 326.53 495.31 325.9 497.42 324.99 500.83 323.85 502.02 322.57 503.28 320.82 504.74 318.89 505.29 318.11 505.93 317.69 506.46 317.58 507.93 317.68 510.37 317.52 513.05 315.74 514.52 314.12 514.91 313.5 516.03 311.35 516.45 310.2 516.88 308.51 517.59 306.84 518.16 305.74 519.13 304.62 520.64 303.15 523.16 300.96 524.54 300.07 526.16 298.84 526.94 298.27 527.75 297.7 528.67 297.4 529.86 297.15 532.1 296.28 531.97 295.31 531.88 294.36 532.08 293.29 532.51 291.24 533.11 290.24 533.95 289.25 535.09 288.39 536.52 287.13 538.39 284.89 538.83 284.77 539.71 284.6 540.85 283.86 541.38 283.39 541.91 283.02 542.78 282.74 543.62 282.59 544.25 282.45 544.73 282.4 545 282.13 545.45 281.4 545.67 280.47 545.74 279.74 545.97 279.39 546.74 278.29 547.47 277.45 547.92 276.97 548.13 276.83 547.96 276.24 547.8 275.24 547.83 274.28 547.95 273.71 548.17 273.44 549.26 272.9 550.19 272.57 551.12 272.13 551.66 271.81 552.14 270.92 552.51 270.09 552.82 268.5 553.27 267.23 553.31 266.63 553.62 266.27 554.85 265.44 556.1 264.66 556.94 264.31 557.79 264.04 558.69 263.82 559.63 263.56 560.02 263.32 560.3 262.89 559.44 260.74 559.9 260.81 561.05 260.46 561.76 259.72 563.88 259.01 565.4 258.86 567.03 259.26 569.46 260 572.75 260.69 573.58 262.1 575.19 264.8 576.03 265.83 577.14 267.09 577.36 267.42 578.75 269.52 580.27 270.41 582.42 271.56 582.79 271.76 585.36 274.21 587.09 275.61 590.48 277.47 591.95 279.19 592.73 280.64 592.83 282.08 592.66 282.91 592.37 284.35 591.67 286.72 590.86 288.15 590.76 288.33 590.29 289.31 590.03 289.85 588.82 292.35 588.64 293.35 589.94 295.69 591.96 298.84 594.08 300.5 594.93 300.95 594.98 301.21 595.07 301.6 594.95 302.81 594.87 304.82 594.88 307.07 595.96 308.81 597.11 310 598.16 311.28 598.4 312.01 598.47 313.43 598.06 315.02 597.05 318.39 596.79 320.64 596.88 322.37 597.19 323.9 597.7 325.95 597.65 327.4 597.83 328.23 596.76 329.03 595.11 330.52 593.54 332.08 591.45 334.58 589.07 336.95 588.04 338.88 587.57 340.81 587.16 343.3 586.41 346.46 585.77 348.28 585.03 350.1 584.96 351.26 585.07 352.04 585.89 353.6 587.62 356.05 589.57 358.72 590.74 359.89 591.86 361.67 592.91 363.73 594.14 365.07 595.87 366.41 597.83 367.26 599.79 368.33 601.47 369.39 603.17 370.55 605.45 373.04 607.01 374.46 608.46 375.78 609.58 376.53 610.73 377.09 611.97 376.91 613.89 376.12 615.18 375.99 617.23 376.42 620.43 377.17 621.35 377.78 623.66 378.33 625.74 378.48 628.32 378.64 631.22 378.83 633.33 378.81 635.22 378.02 636.99 377.1 638.57 376.3 639.73 375.84 640.73 375.67 645.26 376.7 646.48 377.18 647.45 377.95 652.06 381.09 656.46 383.71 660.13 385.28 661.28 388.74 663.8 393.04 667.25 396.41 671.51 402.2 673.11 406.39 674.1 408.39 675.04 410.79 676.5 413.98 677.18 414.48 677.22 414.8 677.72 418.77 677.97 421.7 678.97 423.98 679.9 426.76 679.9 427.28 679.88 429.53 678.91 431.76 678.8 432.01 678.79 432.19 678.71 434.48 679.43 437.39 679.47 439.83 679.89 443.17 680.11 444.43 680.56 445.08 681 445.71 681.65 446.36 683.58 448.64 684.28 449.55 684.85 450.3 684.87 450.75 686.16 453.38 687.88 457.34 688.54 460.11 688.61 463.83 688.58 464.56 688.49 466.22 689.57 468.81 690.99 471.14 691.47 471.84 692.56 473.4 692.58 473.97 692.6 474.31 692.71 476.92 692.21 479.26 692.01 480.24 691.56 483.06 692.22 485.97 692.99 487.87 693.54 489.23 693.6 489.66 694.18 493.72 694.1 497.58 694.05 499.86 694.17 501 694.45 503.61 694.49 508.26 693.84 512.84 692.48 517.39 690.57 524.17 688.67 526.4 686.55 528.25 686.46 530.52 686.73 533.17 688.31 536.51 693.43 542.82 693.69 543.14 696.11 546.7 699.98 551.33 702.01 554.17 702.02 554.17 703.35 556.23 704.33 557.9 704.36 559.62 703.58 561.09 703.16 561.88 701.91 563.59 700.78 564.66 700.15 565.57 699.98 566.42 700.3 568.03 701.47 569.82 704.93 573.05 707.64 575.82 709.36 577.58 712.57 581.7 714.71 585.33 715.44 589.92 714.04 596.55 710.67 603.31 710.21 604.23 707.59 608.81 704.35 613.27 700.54 618.28 697.76 621.53 695.72 623.52 695.14 625.33 694.95 628.21 693.63 636.8 693.08 640.39 691.79 644.47 690 649.78 688.64 652.15 688.26 653.61 688.65 657.6 688.7 662.63 688.51 664.74 688.42 665.83 688.17 666.52 687.89 667.3 686.13 670.42 684.7 672.95 681.53 675.74 677.77 678.52 676.05 681.88 673.98 686.51 673.09 691.42 673.07 695.02 673.18 699.03 671.53 703.04 669.37 705.87 665.85 709.57 662.46 711.56 660.18 712.2 660.07 712.23 659.99 712.24 657.96 712.35 655.03 713.81 654.63 715.03 655.14 717.41 655.31 718.22 656.96 722.46 659.39 727.46 660.33 730.45 661.43 735.47 661.64 736.41 661.37 737.43 660.34 741.39 658.48 744.33 657.32 749.6 656.42 755.81 656.3 760.28 657.25 768.3 657.55 771.83 654.8 775.34 653.96 775.87 650.7 777.94 650.51 777.99 646.48 778.88 642.81 780.17 641.18 782.1 639.33 784.11 636.23 785.73 633.27 786.61 630.37 788.52 628.24 791.56 627.41 792.96 627.38 793.01 624.84 794.58 622.28 795.54 621.95 795.66 619.7 797.3 618.84 800.49 618.71 802.85 618.5 804.71 618.41 805.93 618.19 808.72 618.32 809.66 618.59 811.7 618.93 814.84 619.16 819.74 619.8 822.46 619.26 824.73 617.91 826.68 617.55 827.21 615.66 828.75 614.44 829.74 613.87 831.16 613.4 832.31 613.24 834.69 613.19 836.66 613.88 839.16 615.32 840.48 615.6 843.67 615.36 847.06 614.07 850.79 608.66 854.39 613.84 857.75 617.36 861.01 618.14 863.83 619.68 865.78 621.35 870.29 627.43 873.85 633.87 875.49 638.81 876.38 640.82 877.75 641.68 880.25 643.57 886.01 645.67 887.69 648.44 888.79 650.56 890.57 651.71 893.45 652.04 896.64 651.97 898.18 651.78 902.87 652.42 910.49 654.63 914.71 658.42 917.39 662.06 919.29 665.93 920.78 671.59 923.17 672.29 923.93 672.77 924.59 672.75 925.43 672.01 927.59 670.22 930.07 667.67 933.17 665.97 939.22 665.77 943.91 665.37 945.94 664.04 948.43 664.38 949.22 666.26 950.64 667.65 951.28 669.97 951.85 671.34 953.48 672.22 955.36 669.37 956.04 665.99 957.19 661.71 957.62 657.54 957.61 652.68 957.16 651.08 957.01 647.5 956.43 641.07 956.19 632.82 955.2 625.79 953.41 622.95 952.63 617.93 952.24 614.48 952.46 612.53 951.46 605.56 950.67 600.27 949.95 597.09 949.11 594.19 948.56 591.85 947.55 589.45 947.22 586.61 946.66 583.43 945.71 580.82 944.18 577.47 942.82 575.35 941.76 570.95 939.64 568.94 938.86 567.22 938.02 563.82 936.63 561.42 935.85 558.8 934.9 556.91 934.07 554.4 933.62 551.33 932.84 548.44 932.9 545.71 931.78 543.03 931.06 539.91 929.89 536.63 929.31 536.49 929.36 534.46 930.11 532.8 930.9 530.79 931.01 530.19 931.05 529.56 931.07 525.7 930.86 522.86 931.62 520.76 931.06 519.9 929.44 518.43 927.72 516.92 926.71 514.74 925.55 512.86 924.25 511 924.03 508.82 923.83 506.24 923.63 503.92 923.47 502.25 922.82 500.93 921.5 499.27 920.95 497.64 920.84 495.22 921 492.99 921 492.96 921 491.26 921.46 491.12 921.5 489.55 922.21 488.54 922.26 487.99 922.01 487.53 921.81 486.67 920.14 486.27 919.1 485.76 917.76 485.37 917.35 485.36 917.34 484.74 916.7 483.12 915.53 482.05 915.27 481.66 915.18 479.28 914.93 477.99 914.22 477.61 914.01 476.35 912.6 475.94 911.71 475.84 911.49 475.18 910.52 473.87 910.17 473.22 909.52 472.75 909.06 471.74 908.18 470.17 906.83 468.4 904.61 467.44 902.53 466.23 901.24 465.92 900.91 465.32 899.5 465.17 897.37 464.81 895.8 463.7 894.59 463.07 893.92 462.79 893.63 461.68 891.65 461.25 890.4 461.02 889.73 460.46 886.8 459.6 884.77 459.16 883.54 458.96 883.14 458.04 882.17 457.74 881.97 456.6 881.24 455.55 881.03 453.53 880.72 453.39 880.7 452.7 880.63 451.7 880.53 451.51 880.52 448.96 880.35 446.75 879.92 444.7 879.28 444.51 879.18 443.76 878.78 443.02 878.39 441.24 877.13 438.88 875.4 436 872.62 434.85 870.69 432.86 868.81 431.46 868.01 Z" id="VENTANILLA" class="area" title="VENTANILLA"></path>

</svg>